# This file uses centimeters as units for non-parametric coordinates.

mtllib bone.mtl
g default
v 8.533391 -0.013025 -4.753912
v 8.653722 -0.013025 -4.954031
v 8.529092 0.220218 -4.757852
v 8.648226 0.220218 -4.955980
v 7.327901 0.223754 -5.480004
v 7.447143 0.223754 -5.678311
v 7.319873 -0.014442 -5.481905
v 7.441699 -0.014442 -5.684510
v 8.627348 0.102695 -4.674653
v 8.767784 0.102695 -4.908208
v 7.350346 0.104135 -5.761317
v 7.209198 0.104135 -5.526577
v 6.998839 0.251955 -5.695631
v 7.102392 0.251955 -5.867847
v 7.102392 0.165535 -5.867847
v 6.998839 0.165535 -5.695631
v 7.065839 0.046327 -5.901963
v 6.951566 0.046327 -5.711918
v 7.065839 -0.046190 -5.901963
v 6.951566 -0.046190 -5.711918
v 8.781199 0.144004 -4.624408
v 8.884305 0.144004 -4.795879
v 8.884305 0.230051 -4.795879
v 8.781199 0.230051 -4.624408
v 8.809192 -0.038632 -4.601953
v 8.917264 -0.038632 -4.781684
v 8.917264 0.048865 -4.781684
v 8.809192 0.048865 -4.601953
v 7.462003 0.034874 -5.718278
v 8.673777 0.035686 -4.987384
v 6.982184 0.060379 -5.822886
v 7.063080 -0.005116 -5.957422
v 6.982184 -0.070610 -5.822886
v 6.901288 -0.005116 -5.688350
v 8.513336 0.035686 -4.720559
v 7.299568 0.034874 -5.448138
v 7.177736 0.249309 -5.855482
v 7.045089 0.249309 -5.634881
v 7.177736 0.138608 -5.855482
v 7.159395 0.104797 -5.716330
v 7.045089 0.138608 -5.634881
v 7.155961 0.072761 -5.880279
v 7.012976 0.072761 -5.642486
v 7.155961 -0.043002 -5.880279
v 7.012976 -0.043002 -5.642486
v 8.797175 0.101371 -4.731536
v 8.877557 0.124827 -4.832894
v 8.745341 0.124827 -4.613011
v 8.877557 0.235167 -4.832894
v 8.745341 0.235167 -4.613011
v 8.899543 -0.037336 -4.825096
v 8.762538 -0.037336 -4.597248
v 8.899543 0.073585 -4.825096
v 8.762538 0.073585 -4.597248
v 8.840208 0.129466 -4.705660
v 8.912130 0.189488 -4.825271
v 8.840208 0.249510 -4.705660
v 8.768286 0.189488 -4.586049
v 8.588658 0.236789 -4.856916
v 8.034410 0.177045 -5.274948
v 7.387522 0.240339 -5.579158
v 7.959543 0.177045 -5.150439
v 7.029336 0.274242 -5.794534
v 7.101617 0.213920 -5.914743
v 7.029336 0.153598 -5.794534
v 6.957054 0.213920 -5.674325
v 7.380786 -0.030880 -5.583208
v 8.034410 0.033435 -5.274948
v 8.593556 -0.029262 -4.853971
v 7.959543 0.033435 -5.150439
v 8.046888 0.104462 -5.295700
v 7.467016 0.173997 -5.711362
v 8.668081 0.170507 -4.989001
v 7.947065 0.104462 -5.129687
v 8.509236 0.170507 -4.724831
v 7.308027 0.173997 -5.446953
v 8.874493 -0.060896 -4.685045
v 8.950406 0.000564 -4.811293
v 8.874493 0.062024 -4.685045
v 8.798580 0.000564 -4.558796
v 8.849794 0.192651 -4.699896
v 7.996977 0.187458 -5.212694
v 7.001977 0.220574 -5.810985
v 7.996977 0.023332 -5.212694
v 8.046888 0.145804 -5.295700
v 7.947065 0.145804 -5.129687
v 8.888977 -0.005290 -4.676335
v 8.046888 0.063742 -5.295700
v 6.948089 -0.011781 -5.843387
v 7.947065 0.063742 -5.129687
v 7.111413 0.267759 -5.745181
v 7.199844 0.193959 -5.892249
v 7.111413 0.120158 -5.745181
v 7.022982 0.193959 -5.598114
v 7.084469 0.092054 -5.761382
v 7.179792 0.014879 -5.919912
v 7.084469 -0.062296 -5.761382
v 6.989146 0.014879 -5.602853
v 8.811449 0.106437 -4.722953
v 8.899593 0.179997 -4.869542
v 8.811449 0.253557 -4.722953
v 8.723306 0.179997 -4.576364
v 8.831041 -0.055823 -4.711172
v 8.922377 0.018125 -4.863071
v 8.831041 0.092072 -4.711172
v 8.739704 0.018125 -4.559274
v 7.409369 0.193240 -5.465305
v 7.453848 0.205613 -5.539276
v 7.498327 0.193240 -5.613247
v 7.513153 0.156121 -5.637903
v 7.435396 0.104321 -5.671197
v 7.509812 0.053002 -5.642513
v 7.494698 0.016294 -5.617378
v 7.449359 0.004058 -5.541975
v 7.404019 0.016294 -5.466572
v 7.388906 0.053002 -5.441438
v 7.328676 0.104321 -5.493716
v 7.394543 0.156121 -5.440648
v 8.513544 0.190191 -4.802041
v 8.557725 0.202481 -4.875517
v 8.601906 0.190191 -4.948993
v 8.616633 0.153320 -4.973485
v 8.684800 0.103141 -4.918246
v 8.620527 0.053568 -4.972379
v 8.605664 0.017467 -4.947660
v 8.561073 0.005434 -4.873503
v 8.516483 0.017467 -4.799346
v 8.501620 0.053568 -4.774627
v 8.579570 0.103141 -4.743242
v 8.498817 0.153320 -4.777549
vt 0.388090 1.000000
vt 0.388090 0.000000
vt 0.638090 1.000000
vt 0.638090 0.000000
vt 0.388090 0.250000
vt 0.638090 0.250000
vt 0.388090 0.500000
vt 0.138090 0.250000
vt 0.638090 0.500000
vt 0.888090 0.250000
vt 0.388090 0.750000
vt 0.138090 0.000000
vt 0.638090 0.750000
vt 0.888090 0.000000
vt 0.388090 0.123315
vt 0.638090 0.123315
vt 0.888090 0.123104
vt 0.638090 0.626896
vt 0.138090 0.123104
vt 0.388090 0.626896
vt 0.443645 0.528199
vt 0.582534 0.528199
vt 0.582534 0.598697
vt 0.443645 0.598697
vt 0.582534 0.654252
vt 0.443645 0.654252
vt 0.582534 0.722644
vt 0.443645 0.722643
vt 0.443645 0.151303
vt 0.582534 0.151303
vt 0.582534 0.221801
vt 0.443645 0.221801
vt 0.443645 0.027356
vt 0.582534 0.027356
vt 0.582534 0.095748
vt 0.443645 0.095748
vt 0.513090 0.186552
vt 0.513090 0.375000
vt 0.513090 0.563448
vt 0.513090 0.875000
vt 0.763090 0.186552
vt 0.263090 0.186552
vt 0.513090 0.061552
vt 0.763090 0.061552
vt 0.513090 0.688448
vt 0.263090 0.061552
vt 0.513090 0.500000
vt 0.638090 0.563448
vt 0.513090 0.626896
vt 0.388090 0.563448
vt 0.513090 0.626896
vt 0.638090 0.688448
vt 0.513090 0.750000
vt 0.388090 0.688448
vt 0.513090 0.123104
vt 0.638090 0.186552
vt 0.513090 0.250000
vt 0.388090 0.186552
vt 0.513090 0.000000
vt 0.638090 0.061552
vt 0.513090 0.123104
vt 0.388090 0.061552
vt 0.513090 0.138966
vt 0.606840 0.186552
vt 0.513090 0.234138
vt 0.419340 0.186552
vt 0.513090 0.281250
vt 0.638090 0.375000
vt 0.763090 0.250000
vt 0.513090 0.468750
vt 0.388090 0.375000
vt 0.263090 0.250000
vt 0.513090 0.515862
vt 0.606840 0.563448
vt 0.513090 0.611034
vt 0.419340 0.563448
vt 0.513090 0.781250
vt 0.638090 0.875000
vt 0.763090 0.000000
vt 0.513090 1.000000
vt 0.513090 0.000000
vt 0.388090 0.875000
vt 0.263090 0.000000
vt 0.763090 0.123578
vt 0.888090 0.186552
vt 0.638090 0.563448
vt 0.669340 0.186552
vt 0.263090 0.123578
vt 0.356840 0.186552
vt 0.138090 0.186552
vt 0.388090 0.563448
vt 0.513090 0.015388
vt 0.606840 0.061552
vt 0.513090 0.107716
vt 0.419340 0.061552
vt 0.888090 0.061552
vt 0.638090 0.688448
vt 0.669340 0.061552
vt 0.513090 0.642284
vt 0.606840 0.688448
vt 0.513090 0.734612
vt 0.419340 0.688448
vt 0.356840 0.061552
vt 0.138090 0.061552
vt 0.388090 0.688448
vt 0.606840 0.515862
vt 0.419340 0.515862
vt 0.606840 0.611034
vt 0.513090 0.626896
vt 0.419340 0.611034
vt 0.606840 0.642284
vt 0.419340 0.642284
vt 0.606840 0.734612
vt 0.419340 0.734612
vt 0.513090 0.123104
vt 0.606840 0.138966
vt 0.419340 0.138966
vt 0.606840 0.234138
vt 0.419340 0.234138
vt 0.606840 0.015388
vt 0.419340 0.015388
vt 0.606840 0.107716
vt 0.419340 0.107716
vt 0.158057 0.250000
vt 0.388090 0.480033
vt 0.513090 0.453774
vt 0.638090 0.480033
vt 0.868122 0.250000
vt 0.868122 0.186552
vt 0.868122 0.123180
vt 0.868122 0.061552
vt 0.638090 0.769968
vt 0.868122 0.000000
vt 0.513090 0.796226
vt 0.158057 0.000000
vt 0.388090 0.769968
vt 0.158057 0.061552
vt 0.158057 0.123180
vt 0.158057 0.186552
vt 0.373222 0.250000
vt 0.388090 0.264868
vt 0.513090 0.292401
vt 0.638090 0.264868
vt 0.652957 0.250000
vt 0.680490 0.186552
vt 0.652957 0.123346
vt 0.680490 0.061552
vt 0.638090 0.985133
vt 0.652957 0.000000
vt 0.513090 0.985133
vt 0.373222 0.000000
vt 0.388090 0.985133
vt 0.345689 0.061552
vt 0.373222 0.123346
vt 0.345689 0.186552
vn 0.655381 -0.458062 0.600545
vn 0.746906 -0.490335 0.449113
vn 0.856995 0.003936 0.515309
vn 0.603681 0.040810 0.796181
vn 0.837742 -0.458062 0.297266
vn 0.986294 0.040810 0.159868
vn 0.765068 0.603208 0.225412
vn 0.656993 0.642103 0.395049
vn 0.557839 0.603208 0.570049
vn -0.303931 0.911232 0.277998
vn -0.077484 0.995904 -0.046591
vn 0.002169 0.999997 0.001304
vn -0.199899 0.919923 0.337315
vn 0.103027 0.911232 -0.398801
vn 0.204200 0.919923 -0.334729
vn 0.077779 0.995873 0.046769
vn 0.299237 0.913235 -0.276511
vn 0.327839 0.902337 -0.279838
vn 0.116867 0.990658 0.070272
vn -0.103914 0.913235 0.393958
vn -0.093442 0.902337 0.420780
vn -0.412454 0.907103 0.083945
vn -0.285186 0.943007 -0.171482
vn -0.856769 0.023323 -0.515173
vn -0.944586 0.128611 0.302022
vn -0.119257 0.907103 -0.403662
vn -0.176160 0.128611 -0.975924
vn -0.345300 -0.749651 -0.564616
vn -0.513001 -0.801048 -0.308467
vn -0.660609 -0.749651 -0.040236
vn -0.078667 -0.911385 0.403966
vn 0.117281 -0.990592 0.070521
vn 0.078792 -0.995765 0.047378
vn -0.097356 -0.916807 0.387282
vn 0.319916 -0.911385 -0.258904
vn 0.296416 -0.916807 -0.267587
vn 0.001045 -0.999999 0.000629
vn 0.198180 -0.924132 -0.326657
vn 0.093168 -0.915775 -0.390737
vn -0.081087 -0.995514 -0.048758
vn -0.195592 -0.924132 0.328213
vn -0.301431 -0.915775 0.265509
vn 0.421954 0.101715 -0.900894
vn 0.450907 0.003633 -0.892563
vn 0.516234 0.008463 -0.856406
vn 0.504551 0.213993 -0.836442
vn 0.593536 0.114661 -0.796598
vn 0.576016 0.009972 -0.817378
vn 0.473508 0.202395 -0.857220
vn 0.599814 0.036898 -0.799288
vn -0.535109 0.202395 0.820179
vn -0.451852 0.009972 0.892037
vn -0.425283 0.114661 0.897768
vn -0.424716 0.036898 0.904575
vn -0.514355 0.008463 0.857535
vn -0.576924 0.003633 0.816790
vn -0.597858 0.101715 0.795123
vn -0.502201 0.213993 0.837855
vn 0.343435 -0.803298 0.486585
vn 0.502855 -0.809760 0.302366
vn 0.856957 -0.010261 0.515286
vn 0.458791 -0.098614 0.883055
vn 0.590813 -0.803298 0.075177
vn 0.995087 -0.098614 -0.008841
vn 0.797626 0.559300 0.225778
vn 0.689663 0.593628 0.414693
vn 0.573428 0.559300 0.598635
vn 0.418894 -0.105960 -0.901832
vn 0.505510 -0.207675 -0.837455
vn 0.597484 -0.107283 -0.794672
vn 0.613719 -0.029514 -0.788972
vn -0.604911 0.796288 0.002862
vn -0.451116 0.850244 -0.271255
vn -0.856750 -0.024230 -0.515162
vn -0.914710 -0.138104 0.379781
vn -0.281117 0.796288 -0.535629
vn -0.093470 -0.138104 -0.985997
vn -0.089693 -0.918704 -0.384628
vn -0.250983 -0.956155 -0.150915
vn -0.381780 -0.918704 0.101132
vn -0.421731 -0.107283 0.900352
vn -0.409084 -0.029514 0.912019
vn -0.600121 -0.105960 0.792860
vn -0.502646 -0.207675 0.839177
vn 0.062040 0.997376 0.037304
vn -0.168056 0.907769 0.384335
vn 0.260661 0.907768 -0.328652
vn 0.475874 0.170908 -0.862748
vn 0.182750 -0.745988 -0.640394
vn -0.640383 0.664559 -0.385061
vn -0.218181 -0.967050 -0.131192
vn -0.479935 -0.745988 0.461697
vn -0.538883 0.170908 0.824861
vn -0.162567 0.981844 -0.097751
vn -0.418270 0.784876 0.457188
vn 0.207682 0.784876 -0.583814
vn 0.498690 -0.122305 -0.858108
vn 0.273378 -0.903253 -0.330753
vn 0.065582 -0.997068 0.039434
vn -0.163949 -0.903253 0.396553
vn -0.524086 -0.122305 0.842838
vn -0.520331 0.142632 0.841969
vn 0.664862 0.630979 0.399780
vn 0.264120 -0.951325 0.158815
vn -0.192035 -0.709806 0.677716
vn 0.499683 0.142632 -0.854385
vn 0.508546 -0.709806 -0.487398
vn 0.388981 0.070084 -0.918576
vn 0.544018 0.209202 -0.812575
vn 0.080117 0.909849 -0.407132
vn 0.192779 0.909513 -0.368269
vn -0.121877 0.989836 -0.073284
vn -0.031301 0.999333 -0.018821
vn -0.322031 0.909849 0.261669
vn -0.234878 0.909513 0.342954
vn -0.628937 0.070084 0.774291
vn -0.462614 0.209202 0.861524
vn -0.340260 -0.907184 0.247469
vn -0.140796 -0.986412 -0.084661
vn -0.072292 -0.996436 -0.043469
vn -0.264681 -0.911679 0.314301
vn 0.059027 -0.907183 -0.416574
vn 0.153496 -0.911679 -0.381156
vn 0.391028 -0.017122 -0.920219
vn 0.529592 -0.210958 -0.821602
vn 0.493922 0.733578 -0.466803
vn 0.258392 0.953464 0.155371
vn -0.180701 0.733578 0.655142
vn -0.629428 -0.017122 0.776870
vn -0.477352 -0.210958 0.853014
s 1
g pCube10
usemtl initialShadingGroup
f 21/29/1 55/63/2 81/37/3 58/66/4
f 55/63/2 22/30/5 56/64/6 81/37/3
f 81/37/3 56/64/6 23/31/7 57/65/8
f 58/66/4 81/37/3 57/65/8 24/32/9
f 119/141/10 120/142/11 82/38/12 62/71/13
f 120/142/11 121/143/14 60/68/15 82/38/12
f 108/126/16 109/127/17 6/9/18 61/70/19
f 107/125/20 108/126/16 61/70/19 5/7/21
f 13/21/22 63/73/23 83/39/24 66/76/25
f 63/73/23 14/22/26 64/74/27 83/39/24
f 83/39/24 64/74/27 15/23/28 65/75/29
f 66/76/25 83/39/24 65/75/29 16/24/30
f 7/11/31 67/77/32 114/134/33 115/136/34
f 67/77/32 8/13/35 113/132/36 114/134/33
f 84/40/37 68/78/38 125/148/39 126/150/40
f 70/82/41 84/40/37 126/150/40 127/152/42
f 122/145/43 123/146/44 71/84/45 85/41/46
f 110/129/47 111/130/48 11/17/49 72/85/50
f 109/128/17 110/129/47 72/85/50 6/10/18
f 121/144/14 122/145/43 85/41/46 60/69/15
f 12/19/51 117/138/52 118/139/53 76/90/54
f 74/88/55 129/154/56 130/155/57 86/42/58
f 86/42/58 130/155/57 119/140/10 62/72/13
f 76/90/54 118/139/53 107/124/20 5/8/21
f 25/33/59 77/92/60 87/43/61 80/95/62
f 77/92/60 26/34/63 78/93/64 87/43/61
f 87/43/61 78/93/64 27/35/65 79/94/66
f 80/95/62 87/43/61 79/94/66 28/36/67
f 124/147/68 125/149/39 68/79/38 88/44/69
f 112/131/70 113/133/36 8/14/35 29/96/71
f 111/130/48 112/131/70 29/96/71 11/17/49
f 123/146/44 124/147/68 88/44/69 71/84/45
f 18/26/72 31/99/73 89/45/74 34/102/75
f 31/99/73 17/25/76 32/100/77 89/45/74
f 89/45/74 32/100/77 19/27/78 33/101/79
f 34/102/75 89/45/74 33/101/79 20/28/80
f 7/12/31 115/135/34 116/137/81 36/104/82
f 70/83/41 127/151/42 128/153/83 90/46/84
f 90/46/84 128/153/83 129/154/56 74/88/55
f 36/104/82 116/137/81 117/138/52 12/19/51
f 5/7/21 61/70/19 91/47/85 38/107/86
f 61/70/19 6/9/18 37/106/87 91/47/85
f 91/47/85 37/106/87 14/22/26 63/73/23
f 38/107/86 91/47/85 63/73/23 13/21/22
f 6/9/18 72/86/50 92/48/88 37/106/87
f 72/86/50 11/18/49 39/108/89 92/48/88
f 92/48/88 39/108/89 15/23/28 64/74/27
f 37/106/87 92/48/88 64/74/27 14/22/26
f 11/18/49 40/109/90 93/49/91 39/108/89
f 40/109/90 12/20/51 41/110/92 93/49/91
f 93/49/91 41/110/92 16/24/30 65/75/29
f 39/108/89 93/49/91 65/75/29 15/23/28
f 12/20/51 76/91/54 94/50/93 41/110/92
f 76/91/54 5/7/21 38/107/86 94/50/93
f 94/50/93 38/107/86 13/21/22 66/76/25
f 41/110/92 94/50/93 66/76/25 16/24/30
f 12/20/51 40/109/90 95/51/94 43/112/95
f 40/109/90 11/18/49 42/111/96 95/51/94
f 95/51/94 42/111/96 17/25/76 31/99/73
f 43/112/95 95/51/94 31/99/73 18/26/72
f 11/18/49 29/97/71 96/52/97 42/111/96
f 29/97/71 8/13/35 44/113/98 96/52/97
f 96/52/97 44/113/98 19/27/78 32/100/77
f 42/111/96 96/52/97 32/100/77 17/25/76
f 8/13/35 67/77/32 97/53/99 44/113/98
f 67/77/32 7/11/31 45/114/100 97/53/99
f 97/53/99 45/114/100 20/28/80 33/101/79
f 44/113/98 97/53/99 33/101/79 19/27/78
f 7/11/31 36/105/82 98/54/101 45/114/100
f 36/105/82 12/20/51 43/112/95 98/54/101
f 98/54/101 43/112/95 18/26/72 34/102/75
f 45/114/100 98/54/101 34/102/75 20/28/80
f 9/15/102 46/115/103 99/55/104 48/117/105
f 46/115/103 10/16/106 47/116/107 99/55/104
f 99/55/104 47/116/107 22/30/5 55/63/2
f 48/117/105 99/55/104 55/63/2 21/29/1
f 10/16/106 73/87/108 100/56/109 47/116/107
f 73/87/108 4/6/110 49/118/111 100/56/109
f 100/56/109 49/118/111 23/31/7 56/64/6
f 47/116/107 100/56/109 56/64/6 22/30/5
f 4/6/110 59/67/112 101/57/113 49/118/111
f 59/67/112 3/5/114 50/119/115 101/57/113
f 101/57/113 50/119/115 24/32/9 57/65/8
f 49/118/111 101/57/113 57/65/8 23/31/7
f 3/5/114 75/89/116 102/58/117 50/119/115
f 75/89/116 9/15/102 48/117/105 102/58/117
f 102/58/117 48/117/105 21/29/1 58/66/4
f 50/119/115 102/58/117 58/66/4 24/32/9
f 1/2/118 69/81/119 103/59/120 52/121/121
f 69/81/119 2/4/122 51/120/123 103/59/120
f 103/59/120 51/120/123 26/34/63 77/92/60
f 52/121/121 103/59/120 77/92/60 25/33/59
f 2/4/122 30/98/124 104/60/125 51/120/123
f 30/98/124 10/16/106 53/122/126 104/60/125
f 104/60/125 53/122/126 27/35/65 78/93/64
f 51/120/123 104/60/125 78/93/64 26/34/63
f 10/16/106 46/115/103 105/61/127 53/122/126
f 46/115/103 9/15/102 54/123/128 105/61/127
f 105/61/127 54/123/128 28/36/67 79/94/66
f 53/122/126 105/61/127 79/94/66 27/35/65
f 9/15/102 35/103/129 106/62/130 54/123/128
f 35/103/129 1/2/118 52/121/121 106/62/130
f 106/62/130 52/121/121 25/33/59 80/95/62
f 54/123/128 106/62/130 80/95/62 28/36/67
f 62/71/13 82/38/12 108/126/16 107/125/20
f 82/38/12 60/68/15 109/127/17 108/126/16
f 85/41/46 110/129/47 109/128/17 60/69/15
f 71/84/45 111/130/48 110/129/47 85/41/46
f 88/44/69 112/131/70 111/130/48 71/84/45
f 68/79/38 113/133/36 112/131/70 88/44/69
f 114/134/33 113/132/36 68/78/38 84/40/37
f 115/136/34 114/134/33 84/40/37 70/82/41
f 116/137/81 115/135/34 70/83/41 90/46/84
f 117/138/52 116/137/81 90/46/84 74/88/55
f 118/139/53 117/138/52 74/88/55 86/42/58
f 107/124/20 118/139/53 86/42/58 62/72/13
f 3/5/114 59/67/112 120/142/11 119/141/10
f 59/67/112 4/6/110 121/143/14 120/142/11
f 73/87/108 122/145/43 121/144/14 4/6/110
f 10/16/106 123/146/44 122/145/43 73/87/108
f 30/98/124 124/147/68 123/146/44 10/16/106
f 2/4/122 125/149/39 124/147/68 30/98/124
f 126/150/40 125/148/39 2/3/122 69/80/119
f 127/152/42 126/150/40 69/80/119 1/1/118
f 128/153/83 127/151/42 1/2/118 35/103/129
f 129/154/56 128/153/83 35/103/129 9/15/102
f 130/155/57 129/154/56 9/15/102 75/89/116
f 119/140/10 130/155/57 75/89/116 3/5/114
