# This file uses centimeters as units for non-parametric coordinates.

mtllib scroll.mtl
g default
v -0.580636 1.764779 3.036564
v -0.591820 1.764779 3.014615
v -0.609239 1.764779 2.997196
v -0.631187 1.764779 2.986013
v -0.655518 1.764779 2.982159
v -0.679849 1.764779 2.986013
v -0.701798 1.764779 2.997196
v -0.719217 1.764779 3.014615
v -0.730400 1.764779 3.036564
v -0.734254 1.764779 3.060895
v -0.730400 1.764779 3.085226
v -0.719217 1.764779 3.107174
v -0.701798 1.764779 3.124593
v -0.679849 1.764779 3.135777
v -0.655518 1.764779 3.139630
v -0.631188 1.764779 3.135777
v -0.609239 1.764779 3.124593
v -0.591820 1.764779 3.107174
v -0.580636 1.764779 3.085226
v -0.576783 1.764779 3.060895
v -0.503290 2.517786 3.011433
v -0.526025 2.517786 2.966813
v -0.561436 2.517786 2.931402
v -0.606056 2.517786 2.908667
v -0.655518 2.517786 2.900833
v -0.704980 2.517786 2.908667
v -0.749600 2.517786 2.931402
v -0.785011 2.517786 2.966813
v -0.807746 2.517786 3.011433
v -0.815580 2.517786 3.060895
v -0.807746 2.517786 3.110357
v -0.785011 2.517786 3.154977
v -0.749600 2.517786 3.190388
v -0.704980 2.517786 3.213123
v -0.655518 2.517786 3.220957
v -0.606056 2.517786 3.213123
v -0.561436 2.517786 3.190388
v -0.526026 2.517786 3.154977
v -0.503290 2.517786 3.110357
v -0.495456 2.517786 3.060895
v -0.655518 1.764779 3.060895
v -0.655518 2.430798 3.060895
v -0.504587 1.024742 3.009092
v -0.526785 1.024742 2.965525
v -0.561360 1.024742 2.930950
v -0.604927 1.024742 2.908751
v -0.653222 1.024742 2.901102
v -0.701516 1.024742 2.908751
v -0.745083 1.024742 2.930950
v -0.779658 1.024742 2.965525
v -0.801857 1.024742 3.009092
v -0.809506 1.024742 3.057386
v -0.801857 1.024742 3.105681
v -0.779658 1.024742 3.149248
v -0.745083 1.024742 3.183823
v -0.701516 1.024742 3.206021
v -0.653222 1.024742 3.213670
v -0.604927 1.024742 3.206021
v -0.561360 1.024742 3.183823
v -0.526785 1.024742 3.149248
v -0.504587 1.024742 3.105681
v -0.496938 1.024742 3.057386
v -0.575148 1.780446 3.032019
v -0.586808 1.780446 3.009134
v -0.604969 1.780446 2.990973
v -0.627854 1.780446 2.979312
v -0.653222 1.780446 2.975295
v -0.678589 1.780446 2.979312
v -0.701474 1.780446 2.990973
v -0.719635 1.780446 3.009134
v -0.731296 1.780446 3.032019
v -0.735313 1.780446 3.057386
v -0.731296 1.780446 3.082754
v -0.719635 1.780446 3.105639
v -0.701474 1.780446 3.123800
v -0.678589 1.780446 3.135460
v -0.653222 1.780446 3.139478
v -0.627854 1.780446 3.135460
v -0.604969 1.780446 3.123800
v -0.586808 1.780446 3.105639
v -0.575148 1.780446 3.082754
v -0.571130 1.780446 3.057386
v -0.653222 1.065240 3.057386
v -0.653222 1.780446 3.057386
v -0.549677 1.676935 3.019566
v -0.566063 1.676935 2.987408
v -0.591583 1.676935 2.961888
v -0.623741 1.676935 2.945503
v -0.659388 1.676935 2.939857
v -0.695035 1.676935 2.945503
v -0.727192 1.676935 2.961888
v -0.752713 1.676935 2.987408
v -0.769098 1.676935 3.019566
v -0.774744 1.676935 3.055213
v -0.769098 1.676935 3.090860
v -0.752713 1.676935 3.123018
v -0.727192 1.676935 3.148538
v -0.695035 1.676935 3.164923
v -0.659388 1.676935 3.170569
v -0.623741 1.676935 3.164923
v -0.591583 1.676935 3.148538
v -0.566063 1.676935 3.123018
v -0.549677 1.676935 3.090860
v -0.544032 1.676935 3.055213
v -0.549677 1.786867 3.019566
v -0.566063 1.786867 2.987408
v -0.591583 1.786867 2.961888
v -0.623741 1.786867 2.945503
v -0.659388 1.786867 2.939857
v -0.695035 1.786867 2.945503
v -0.727192 1.786867 2.961888
v -0.752713 1.786867 2.987408
v -0.769098 1.786867 3.019566
v -0.774744 1.786867 3.055213
v -0.769098 1.786867 3.090860
v -0.752713 1.786867 3.123018
v -0.727192 1.786867 3.148538
v -0.695035 1.786867 3.164923
v -0.659388 1.786867 3.170569
v -0.623741 1.786867 3.164923
v -0.591583 1.786867 3.148538
v -0.566063 1.786867 3.123018
v -0.549677 1.786867 3.090860
v -0.544032 1.786867 3.055213
v -0.659388 1.676935 3.055213
v -0.659388 1.786867 3.055213
vt 0.375000 0.312500
vt 0.387500 0.312500
vt 0.387500 0.688440
vt 0.375000 0.688440
vt 0.400000 0.312500
vt 0.400000 0.688440
vt 0.412500 0.312500
vt 0.412500 0.688440
vt 0.425000 0.312500
vt 0.425000 0.688440
vt 0.437500 0.312500
vt 0.437500 0.688440
vt 0.450000 0.312500
vt 0.450000 0.688440
vt 0.462500 0.312500
vt 0.462500 0.688440
vt 0.475000 0.312500
vt 0.475000 0.688440
vt 0.487500 0.312500
vt 0.487500 0.688440
vt 0.500000 0.312500
vt 0.500000 0.688440
vt 0.512500 0.312500
vt 0.512500 0.688440
vt 0.525000 0.312500
vt 0.525000 0.688440
vt 0.537500 0.312500
vt 0.537500 0.688440
vt 0.550000 0.312500
vt 0.550000 0.688440
vt 0.562500 0.312500
vt 0.562500 0.688440
vt 0.575000 0.312500
vt 0.575000 0.688440
vt 0.587500 0.312500
vt 0.587500 0.688440
vt 0.600000 0.312500
vt 0.600000 0.688440
vt 0.612500 0.312500
vt 0.612500 0.688440
vt 0.625000 0.312500
vt 0.625000 0.688440
vt 0.626409 0.064408
vt 0.648603 0.107966
vt 0.500000 0.150000
vt 0.591842 0.029841
vt 0.548284 0.007647
vt 0.500000 -0.000000
vt 0.451716 0.007647
vt 0.408159 0.029841
vt 0.373591 0.064409
vt 0.351397 0.107966
vt 0.343750 0.156250
vt 0.351397 0.204534
vt 0.373591 0.248091
vt 0.408159 0.282659
vt 0.451716 0.304853
vt 0.500000 0.312500
vt 0.548284 0.304853
vt 0.591841 0.282659
vt 0.626409 0.248091
vt 0.648603 0.204534
vt 0.656250 0.156250
vt 0.648603 0.892034
vt 0.626409 0.935591
vt 0.500000 0.837500
vt 0.591841 0.970159
vt 0.548284 0.992353
vt 0.500000 1.000000
vt 0.451716 0.992353
vt 0.408159 0.970159
vt 0.373591 0.935591
vt 0.351397 0.892034
vt 0.343750 0.843750
vt 0.351397 0.795466
vt 0.373591 0.751909
vt 0.408159 0.717341
vt 0.451716 0.695147
vt 0.500000 0.687500
vt 0.548284 0.695147
vt 0.591842 0.717341
vt 0.626409 0.751908
vt 0.648603 0.795466
vt 0.656250 0.843750
vt 0.375000 0.312500
vt 0.387500 0.312500
vt 0.387500 0.688440
vt 0.375000 0.688440
vt 0.400000 0.312500
vt 0.400000 0.688440
vt 0.412500 0.312500
vt 0.412500 0.688440
vt 0.425000 0.312500
vt 0.425000 0.688440
vt 0.437500 0.312500
vt 0.437500 0.688440
vt 0.450000 0.312500
vt 0.450000 0.688440
vt 0.462500 0.312500
vt 0.462500 0.688440
vt 0.475000 0.312500
vt 0.475000 0.688440
vt 0.487500 0.312500
vt 0.487500 0.688440
vt 0.500000 0.312500
vt 0.500000 0.688440
vt 0.512500 0.312500
vt 0.512500 0.688440
vt 0.525000 0.312500
vt 0.525000 0.688440
vt 0.537500 0.312500
vt 0.537500 0.688440
vt 0.550000 0.312500
vt 0.550000 0.688440
vt 0.562500 0.312500
vt 0.562500 0.688440
vt 0.575000 0.312500
vt 0.575000 0.688440
vt 0.587500 0.312500
vt 0.587500 0.688440
vt 0.600000 0.312500
vt 0.600000 0.688440
vt 0.612500 0.312500
vt 0.612500 0.688440
vt 0.625000 0.312500
vt 0.625000 0.688440
vt 0.626409 0.064408
vt 0.648603 0.107966
vt 0.500000 0.150000
vt 0.591842 0.029841
vt 0.548284 0.007647
vt 0.500000 -0.000000
vt 0.451716 0.007647
vt 0.408159 0.029841
vt 0.373591 0.064409
vt 0.351397 0.107966
vt 0.343750 0.156250
vt 0.351397 0.204534
vt 0.373591 0.248091
vt 0.408159 0.282659
vt 0.451716 0.304853
vt 0.500000 0.312500
vt 0.548284 0.304853
vt 0.591841 0.282659
vt 0.626409 0.248091
vt 0.648603 0.204534
vt 0.656250 0.156250
vt 0.648603 0.892034
vt 0.626409 0.935591
vt 0.500000 0.837500
vt 0.591841 0.970159
vt 0.548284 0.992353
vt 0.500000 1.000000
vt 0.451716 0.992353
vt 0.408159 0.970159
vt 0.373591 0.935591
vt 0.351397 0.892034
vt 0.343750 0.843750
vt 0.351397 0.795466
vt 0.373591 0.751909
vt 0.408159 0.717341
vt 0.451716 0.695147
vt 0.500000 0.687500
vt 0.548284 0.695147
vt 0.591842 0.717341
vt 0.626409 0.751908
vt 0.648603 0.795466
vt 0.656250 0.843750
vt 0.375000 0.312500
vt 0.387500 0.312500
vt 0.387500 0.688440
vt 0.375000 0.688440
vt 0.400000 0.312500
vt 0.400000 0.688440
vt 0.412500 0.312500
vt 0.412500 0.688440
vt 0.425000 0.312500
vt 0.425000 0.688440
vt 0.437500 0.312500
vt 0.437500 0.688440
vt 0.450000 0.312500
vt 0.450000 0.688440
vt 0.462500 0.312500
vt 0.462500 0.688440
vt 0.475000 0.312500
vt 0.475000 0.688440
vt 0.487500 0.312500
vt 0.487500 0.688440
vt 0.500000 0.312500
vt 0.500000 0.688440
vt 0.512500 0.312500
vt 0.512500 0.688440
vt 0.525000 0.312500
vt 0.525000 0.688440
vt 0.537500 0.312500
vt 0.537500 0.688440
vt 0.550000 0.312500
vt 0.550000 0.688440
vt 0.562500 0.312500
vt 0.562500 0.688440
vt 0.575000 0.312500
vt 0.575000 0.688440
vt 0.587500 0.312500
vt 0.587500 0.688440
vt 0.600000 0.312500
vt 0.600000 0.688440
vt 0.612500 0.312500
vt 0.612500 0.688440
vt 0.625000 0.312500
vt 0.625000 0.688440
vt 0.626409 0.064408
vt 0.648603 0.107966
vt 0.500000 0.150000
vt 0.591842 0.029841
vt 0.548284 0.007647
vt 0.500000 -0.000000
vt 0.451716 0.007647
vt 0.408159 0.029841
vt 0.373591 0.064409
vt 0.351397 0.107966
vt 0.343750 0.156250
vt 0.351397 0.204534
vt 0.373591 0.248091
vt 0.408159 0.282659
vt 0.451716 0.304853
vt 0.500000 0.312500
vt 0.548284 0.304853
vt 0.591841 0.282659
vt 0.626409 0.248091
vt 0.648603 0.204534
vt 0.656250 0.156250
vt 0.648603 0.892034
vt 0.626409 0.935591
vt 0.500000 0.837500
vt 0.591841 0.970159
vt 0.548284 0.992353
vt 0.500000 1.000000
vt 0.451716 0.992353
vt 0.408159 0.970159
vt 0.373591 0.935591
vt 0.351397 0.892034
vt 0.343750 0.843750
vt 0.351397 0.795466
vt 0.373591 0.751909
vt 0.408159 0.717341
vt 0.451716 0.695147
vt 0.500000 0.687500
vt 0.548284 0.695147
vt 0.591842 0.717341
vt 0.626409 0.751908
vt 0.648603 0.795466
vt 0.656250 0.843750
vn 0.945558 -0.107378 -0.307229
vn 0.804341 -0.107377 -0.584385
vn 0.804341 -0.107377 -0.584385
vn 0.945558 -0.107378 -0.307229
vn 0.584387 -0.107377 -0.804340
vn 0.584387 -0.107377 -0.804340
vn 0.307227 -0.107378 -0.945559
vn 0.307227 -0.107378 -0.945559
vn -0.000000 -0.107378 -0.994218
vn 0.000000 -0.107377 -0.994218
vn -0.307227 -0.107377 -0.945559
vn -0.307227 -0.107377 -0.945559
vn -0.584387 -0.107377 -0.804340
vn -0.584387 -0.107377 -0.804340
vn -0.804341 -0.107377 -0.584384
vn -0.804341 -0.107377 -0.584384
vn -0.945558 -0.107378 -0.307230
vn -0.945558 -0.107378 -0.307230
vn -0.994218 -0.107378 -0.000000
vn -0.994218 -0.107378 -0.000000
vn -0.945558 -0.107377 0.307230
vn -0.945558 -0.107377 0.307230
vn -0.804340 -0.107378 0.584387
vn -0.804340 -0.107378 0.584387
vn -0.584387 -0.107378 0.804340
vn -0.584387 -0.107378 0.804340
vn -0.307227 -0.107378 0.945559
vn -0.307227 -0.107378 0.945559
vn -0.000000 -0.107378 0.994218
vn 0.000000 -0.107378 0.994218
vn 0.307227 -0.107378 0.945559
vn 0.307227 -0.107378 0.945559
vn 0.584387 -0.107378 0.804340
vn 0.584387 -0.107378 0.804340
vn 0.804340 -0.107377 0.584386
vn 0.804340 -0.107377 0.584386
vn 0.945558 -0.107377 0.307229
vn 0.945558 -0.107377 0.307229
vn 0.994218 -0.107378 0.000002
vn 0.994218 -0.107378 0.000002
vn 0.000000 -1.000000 0.000000
vn 0.000000 -1.000000 0.000000
vn 0.000000 -1.000000 -0.000000
vn 0.000000 -1.000000 0.000002
vn 0.000000 -1.000000 0.000002
vn 0.000000 -1.000000 0.000000
vn 0.000000 -1.000000 0.000000
vn 0.000000 -1.000000 0.000000
vn 0.000000 -1.000000 0.000000
vn 0.000000 -1.000000 0.000000
vn 0.000000 -1.000000 0.000000
vn 0.000000 -1.000000 0.000000
vn 0.000000 -1.000000 0.000000
vn 0.000000 -1.000000 -0.000002
vn 0.000000 -1.000000 -0.000002
vn 0.000000 -1.000000 0.000000
vn 0.000000 -1.000000 0.000000
vn 0.000000 -1.000000 0.000000
vn 0.000000 -1.000000 0.000000
vn 0.000000 -1.000000 0.000000
vn 0.000000 -1.000000 0.000000
vn -0.454131 0.878631 0.147557
vn -0.386305 0.878631 0.280670
vn 0.000000 1.000000 -0.000000
vn -0.280667 0.878631 0.386308
vn -0.147554 0.878631 0.454132
vn -0.000000 0.878631 0.477502
vn 0.147554 0.878631 0.454132
vn 0.280668 0.878631 0.386307
vn 0.386308 0.878631 0.280667
vn 0.454131 0.878631 0.147557
vn 0.477501 0.878631 0.000000
vn 0.454129 0.878632 -0.147557
vn 0.386308 0.878631 -0.280667
vn 0.280667 0.878631 -0.386307
vn 0.147557 0.878630 -0.454133
vn -0.000000 0.878631 -0.477502
vn -0.147557 0.878630 -0.454132
vn -0.280668 0.878632 -0.386306
vn -0.386308 0.878631 -0.280667
vn -0.454129 0.878631 -0.147561
vn -0.477502 0.878630 -0.000003
vn 0.946507 0.097707 -0.307537
vn 0.805147 0.097707 -0.584971
vn 0.805147 0.097707 -0.584971
vn 0.946507 0.097707 -0.307537
vn 0.584972 0.097707 -0.805146
vn 0.584972 0.097707 -0.805147
vn 0.307537 0.097707 -0.946506
vn 0.307537 0.097707 -0.946507
vn 0.000000 0.097707 -0.995215
vn 0.000000 0.097707 -0.995215
vn -0.307537 0.097707 -0.946506
vn -0.307537 0.097707 -0.946506
vn -0.584972 0.097707 -0.805146
vn -0.584972 0.097707 -0.805146
vn -0.805147 0.097707 -0.584971
vn -0.805147 0.097707 -0.584971
vn -0.946507 0.097707 -0.307537
vn -0.946507 0.097707 -0.307537
vn -0.995215 0.097707 -0.000000
vn -0.995215 0.097707 0.000000
vn -0.946506 0.097707 0.307540
vn -0.946506 0.097707 0.307540
vn -0.805146 0.097707 0.584973
vn -0.805146 0.097707 0.584973
vn -0.584972 0.097707 0.805147
vn -0.584972 0.097707 0.805146
vn -0.307541 0.097707 0.946505
vn -0.307541 0.097707 0.946505
vn 0.000000 0.097707 0.995215
vn 0.000000 0.097707 0.995215
vn 0.307541 0.097707 0.946505
vn 0.307541 0.097707 0.946505
vn 0.584972 0.097707 0.805146
vn 0.584973 0.097707 0.805146
vn 0.805146 0.097707 0.584973
vn 0.805146 0.097707 0.584973
vn 0.946505 0.097707 0.307540
vn 0.946505 0.097707 0.307540
vn 0.995215 0.097707 0.000001
vn 0.995215 0.097707 0.000001
vn -0.202937 -0.968028 0.147441
vn -0.238568 -0.968027 0.077516
vn 0.000000 -1.000000 0.000000
vn -0.147441 -0.968028 0.202937
vn -0.077515 -0.968027 0.238568
vn 0.000000 -0.968027 0.250845
vn 0.077515 -0.968027 0.238569
vn 0.147442 -0.968028 0.202938
vn 0.202937 -0.968028 0.147442
vn 0.238568 -0.968027 0.077514
vn 0.250845 -0.968027 0.000000
vn 0.238568 -0.968027 -0.077515
vn 0.202938 -0.968027 -0.147443
vn 0.147444 -0.968027 -0.202938
vn 0.077517 -0.968027 -0.238569
vn -0.000000 -0.968027 -0.250846
vn -0.077516 -0.968027 -0.238569
vn -0.147444 -0.968027 -0.202938
vn -0.202938 -0.968027 -0.147442
vn -0.238568 -0.968027 -0.077515
vn -0.250845 -0.968027 0.000002
vn 0.000000 1.000000 0.000000
vn 0.000000 1.000000 0.000000
vn 0.000000 1.000000 0.000000
vn 0.000000 1.000000 0.000000
vn 0.000000 1.000000 0.000000
vn 0.000000 1.000000 0.000000
vn 0.000000 1.000000 0.000000
vn 0.000000 1.000000 0.000000
vn 0.000000 1.000000 0.000000
vn 0.000000 1.000000 0.000000
vn 0.000000 1.000000 0.000000
vn 0.000000 1.000000 0.000000
vn 0.000000 1.000000 0.000000
vn 0.000000 1.000000 0.000000
vn 0.000000 1.000000 0.000000
vn 0.000000 1.000000 0.000000
vn 0.000000 1.000000 -0.000002
vn 0.000000 1.000000 -0.000002
vn 0.000000 1.000000 0.000004
vn 0.000000 1.000000 0.000004
vn 0.000000 1.000000 0.000000
vn 0.951057 0.000000 -0.309017
vn 0.809017 0.000000 -0.587786
vn 0.809017 0.000000 -0.587786
vn 0.951057 0.000000 -0.309017
vn 0.587785 0.000000 -0.809017
vn 0.587785 0.000000 -0.809017
vn 0.309020 0.000000 -0.951056
vn 0.309020 0.000000 -0.951056
vn 0.000000 0.000000 -1.000000
vn 0.000000 0.000000 -1.000000
vn -0.309020 0.000000 -0.951056
vn -0.309020 0.000000 -0.951056
vn -0.587785 0.000000 -0.809017
vn -0.587785 0.000000 -0.809017
vn -0.809017 0.000000 -0.587786
vn -0.809017 0.000000 -0.587786
vn -0.951056 0.000000 -0.309017
vn -0.951056 0.000000 -0.309017
vn -1.000000 0.000000 0.000000
vn -1.000000 0.000000 0.000000
vn -0.951056 0.000000 0.309017
vn -0.951056 0.000000 0.309017
vn -0.809018 0.000000 0.587784
vn -0.809018 0.000000 0.587784
vn -0.587787 0.000000 0.809016
vn -0.587787 0.000000 0.809016
vn -0.309017 0.000000 0.951057
vn -0.309017 0.000000 0.951057
vn 0.000000 0.000000 1.000000
vn 0.000000 0.000000 1.000000
vn 0.309017 0.000000 0.951057
vn 0.309017 0.000000 0.951057
vn 0.587787 0.000000 0.809016
vn 0.587787 0.000000 0.809016
vn 0.809018 0.000000 0.587784
vn 0.809018 0.000000 0.587784
vn 0.951056 0.000000 0.309017
vn 0.951056 0.000000 0.309017
vn 1.000000 0.000000 0.000001
vn 1.000000 0.000000 0.000001
vn 0.000000 -1.000000 -0.000000
vn 0.000000 -1.000000 0.000004
vn 0.000000 -1.000000 0.000000
vn 0.000000 -1.000000 -0.000003
vn 0.000000 -1.000000 0.000001
vn 0.000000 -1.000000 0.000000
vn 0.000000 -1.000000 0.000000
vn 0.000000 -1.000000 0.000000
vn 0.000000 -1.000000 0.000000
vn 0.000000 -1.000000 0.000000
vn 0.000000 -1.000000 0.000000
vn 0.000000 -1.000000 0.000000
vn 0.000000 -1.000000 0.000000
vn 0.000000 -1.000000 0.000000
vn 0.000000 -1.000000 0.000000
vn 0.000000 -1.000000 0.000000
vn 0.000000 -1.000000 0.000000
vn 0.000000 -1.000000 0.000000
vn 0.000000 -1.000000 0.000000
vn 0.000000 -1.000000 0.000000
vn 0.000000 -1.000000 0.000000
vn 0.000000 1.000000 0.000000
vn 0.000000 1.000000 0.000000
vn 0.000000 1.000000 0.000000
vn 0.000000 1.000000 0.000002
vn 0.000000 1.000000 0.000002
vn 0.000000 1.000000 0.000000
vn 0.000000 1.000000 0.000002
vn 0.000000 1.000000 0.000002
vn 0.000000 1.000000 0.000000
vn 0.000000 1.000000 0.000000
vn 0.000000 1.000000 0.000000
vn 0.000000 1.000000 0.000000
vn 0.000000 1.000000 0.000000
vn 0.000000 1.000000 -0.000002
vn 0.000000 1.000000 -0.000002
vn 0.000000 1.000000 0.000000
vn 0.000000 1.000000 0.000000
vn 0.000000 1.000000 0.000000
vn 0.000000 1.000000 0.000000
vn 0.000000 1.000000 0.000000
vn 0.000000 1.000000 0.000000
s 1
g polySurface14
usemtl initialShadingGroup
f 1/1/1 2/2/2 22/3/3 21/4/4
f 2/2/2 3/5/5 23/6/6 22/3/3
f 3/5/5 4/7/7 24/8/8 23/6/6
f 4/7/7 5/9/9 25/10/10 24/8/8
f 5/9/9 6/11/11 26/12/12 25/10/10
f 6/11/11 7/13/13 27/14/14 26/12/12
f 7/13/13 8/15/15 28/16/16 27/14/14
f 8/15/15 9/17/17 29/18/18 28/16/16
f 9/17/17 10/19/19 30/20/20 29/18/18
f 10/19/19 11/21/21 31/22/22 30/20/20
f 11/21/21 12/23/23 32/24/24 31/22/22
f 12/23/23 13/25/25 33/26/26 32/24/24
f 13/25/25 14/27/27 34/28/28 33/26/26
f 14/27/27 15/29/29 35/30/30 34/28/28
f 15/29/29 16/31/31 36/32/32 35/30/30
f 16/31/31 17/33/33 37/34/34 36/32/32
f 17/33/33 18/35/35 38/36/36 37/34/34
f 18/35/35 19/37/37 39/38/38 38/36/36
f 19/37/37 20/39/39 40/40/40 39/38/38
f 20/39/39 1/41/1 21/42/4 40/40/40
s 2
f 2/43/41 1/44/42 41/45/43
f 3/46/44 2/43/41 41/45/43
f 4/47/45 3/46/44 41/45/43
f 5/48/46 4/47/45 41/45/43
f 6/49/47 5/48/46 41/45/43
f 7/50/48 6/49/47 41/45/43
f 8/51/49 7/50/48 41/45/43
f 9/52/50 8/51/49 41/45/43
f 10/53/51 9/52/50 41/45/43
f 11/54/52 10/53/51 41/45/43
f 12/55/53 11/54/52 41/45/43
f 13/56/54 12/55/53 41/45/43
f 14/57/55 13/56/54 41/45/43
f 15/58/56 14/57/55 41/45/43
f 16/59/57 15/58/56 41/45/43
f 17/60/58 16/59/57 41/45/43
f 18/61/59 17/60/58 41/45/43
f 19/62/60 18/61/59 41/45/43
f 20/63/61 19/62/60 41/45/43
f 1/44/42 20/63/61 41/45/43
s 3
f 21/64/62 22/65/63 42/66/64
f 22/65/63 23/67/65 42/66/64
f 23/67/65 24/68/66 42/66/64
f 24/68/66 25/69/67 42/66/64
f 25/69/67 26/70/68 42/66/64
f 26/70/68 27/71/69 42/66/64
f 27/71/69 28/72/70 42/66/64
f 28/72/70 29/73/71 42/66/64
f 29/73/71 30/74/72 42/66/64
f 30/74/72 31/75/73 42/66/64
f 31/75/73 32/76/74 42/66/64
f 32/76/74 33/77/75 42/66/64
f 33/77/75 34/78/76 42/66/64
f 34/78/76 35/79/77 42/66/64
f 35/79/77 36/80/78 42/66/64
f 36/80/78 37/81/79 42/66/64
f 37/81/79 38/82/80 42/66/64
f 38/82/80 39/83/81 42/66/64
f 39/83/81 40/84/82 42/66/64
f 40/84/82 21/64/62 42/66/64
s 4
f 43/85/83 44/86/84 64/87/85 63/88/86
f 44/86/84 45/89/87 65/90/88 64/87/85
f 45/89/87 46/91/89 66/92/90 65/90/88
f 46/91/89 47/93/91 67/94/92 66/92/90
f 47/93/91 48/95/93 68/96/94 67/94/92
f 48/95/93 49/97/95 69/98/96 68/96/94
f 49/97/95 50/99/97 70/100/98 69/98/96
f 50/99/97 51/101/99 71/102/100 70/100/98
f 51/101/99 52/103/101 72/104/102 71/102/100
f 52/103/101 53/105/103 73/106/104 72/104/102
f 53/105/103 54/107/105 74/108/106 73/106/104
f 54/107/105 55/109/107 75/110/108 74/108/106
f 55/109/107 56/111/109 76/112/110 75/110/108
f 56/111/109 57/113/111 77/114/112 76/112/110
f 57/113/111 58/115/113 78/116/114 77/114/112
f 58/115/113 59/117/115 79/118/116 78/116/114
f 59/117/115 60/119/117 80/120/118 79/118/116
f 60/119/117 61/121/119 81/122/120 80/120/118
f 61/121/119 62/123/121 82/124/122 81/122/120
f 62/123/121 43/125/83 63/126/86 82/124/122
s 5
f 44/127/123 43/128/124 83/129/125
f 45/130/126 44/127/123 83/129/125
f 46/131/127 45/130/126 83/129/125
f 47/132/128 46/131/127 83/129/125
f 48/133/129 47/132/128 83/129/125
f 49/134/130 48/133/129 83/129/125
f 50/135/131 49/134/130 83/129/125
f 51/136/132 50/135/131 83/129/125
f 52/137/133 51/136/132 83/129/125
f 53/138/134 52/137/133 83/129/125
f 54/139/135 53/138/134 83/129/125
f 55/140/136 54/139/135 83/129/125
f 56/141/137 55/140/136 83/129/125
f 57/142/138 56/141/137 83/129/125
f 58/143/139 57/142/138 83/129/125
f 59/144/140 58/143/139 83/129/125
f 60/145/141 59/144/140 83/129/125
f 61/146/142 60/145/141 83/129/125
f 62/147/143 61/146/142 83/129/125
f 43/128/124 62/147/143 83/129/125
s 6
f 63/148/144 64/149/145 84/150/146
f 64/149/145 65/151/147 84/150/146
f 65/151/147 66/152/148 84/150/146
f 66/152/148 67/153/149 84/150/146
f 67/153/149 68/154/150 84/150/146
f 68/154/150 69/155/151 84/150/146
f 69/155/151 70/156/152 84/150/146
f 70/156/152 71/157/153 84/150/146
f 71/157/153 72/158/154 84/150/146
f 72/158/154 73/159/155 84/150/146
f 73/159/155 74/160/156 84/150/146
f 74/160/156 75/161/157 84/150/146
f 75/161/157 76/162/158 84/150/146
f 76/162/158 77/163/159 84/150/146
f 77/163/159 78/164/160 84/150/146
f 78/164/160 79/165/161 84/150/146
f 79/165/161 80/166/162 84/150/146
f 80/166/162 81/167/163 84/150/146
f 81/167/163 82/168/164 84/150/146
f 82/168/164 63/148/144 84/150/146
s 7
f 85/169/165 86/170/166 106/171/167 105/172/168
f 86/170/166 87/173/169 107/174/170 106/171/167
f 87/173/169 88/175/171 108/176/172 107/174/170
f 88/175/171 89/177/173 109/178/174 108/176/172
f 89/177/173 90/179/175 110/180/176 109/178/174
f 90/179/175 91/181/177 111/182/178 110/180/176
f 91/181/177 92/183/179 112/184/180 111/182/178
f 92/183/179 93/185/181 113/186/182 112/184/180
f 93/185/181 94/187/183 114/188/184 113/186/182
f 94/187/183 95/189/185 115/190/186 114/188/184
f 95/189/185 96/191/187 116/192/188 115/190/186
f 96/191/187 97/193/189 117/194/190 116/192/188
f 97/193/189 98/195/191 118/196/192 117/194/190
f 98/195/191 99/197/193 119/198/194 118/196/192
f 99/197/193 100/199/195 120/200/196 119/198/194
f 100/199/195 101/201/197 121/202/198 120/200/196
f 101/201/197 102/203/199 122/204/200 121/202/198
f 102/203/199 103/205/201 123/206/202 122/204/200
f 103/205/201 104/207/203 124/208/204 123/206/202
f 104/207/203 85/209/165 105/210/168 124/208/204
s 8
f 86/211/205 85/212/206 125/213/207
f 87/214/208 86/211/205 125/213/207
f 88/215/209 87/214/208 125/213/207
f 89/216/210 88/215/209 125/213/207
f 90/217/211 89/216/210 125/213/207
f 91/218/212 90/217/211 125/213/207
f 92/219/213 91/218/212 125/213/207
f 93/220/214 92/219/213 125/213/207
f 94/221/215 93/220/214 125/213/207
f 95/222/216 94/221/215 125/213/207
f 96/223/217 95/222/216 125/213/207
f 97/224/218 96/223/217 125/213/207
f 98/225/219 97/224/218 125/213/207
f 99/226/220 98/225/219 125/213/207
f 100/227/221 99/226/220 125/213/207
f 101/228/222 100/227/221 125/213/207
f 102/229/223 101/228/222 125/213/207
f 103/230/224 102/229/223 125/213/207
f 104/231/225 103/230/224 125/213/207
f 85/212/206 104/231/225 125/213/207
s 9
f 105/232/226 106/233/227 126/234/228
f 106/233/227 107/235/229 126/234/228
f 107/235/229 108/236/230 126/234/228
f 108/236/230 109/237/231 126/234/228
f 109/237/231 110/238/232 126/234/228
f 110/238/232 111/239/233 126/234/228
f 111/239/233 112/240/234 126/234/228
f 112/240/234 113/241/235 126/234/228
f 113/241/235 114/242/236 126/234/228
f 114/242/236 115/243/237 126/234/228
f 115/243/237 116/244/238 126/234/228
f 116/244/238 117/245/239 126/234/228
f 117/245/239 118/246/240 126/234/228
f 118/246/240 119/247/241 126/234/228
f 119/247/241 120/248/242 126/234/228
f 120/248/242 121/249/243 126/234/228
f 121/249/243 122/250/244 126/234/228
f 122/250/244 123/251/245 126/234/228
f 123/251/245 124/252/246 126/234/228
f 124/252/246 105/232/226 126/234/228
