# Blender v2.79 (sub 7) OBJ File: 'Landscape.blend'
# www.blender.org
mtllib Mountain_2.mtl
o Mountain_1_Plane.009
v 8.466924 0.000000 -8.115744
v -1.933643 0.000000 -8.115744
v -4.009863 0.000000 7.968149
v -5.400498 0.000000 -8.115744
v 5.000068 0.000000 -8.115744
v 1.533213 0.000000 -8.115744
v -1.810799 0.000000 9.799002
v 8.411662 0.000000 0.849952
v 8.466494 0.000000 -3.596924
v -6.454837 0.000000 6.395712
v -9.068962 0.000000 4.983717
v 5.749358 0.000000 6.417479
v 1.533196 0.000000 9.959099
v 5.000068 0.000000 9.959673
v 7.080720 0.000000 3.633988
v -9.442031 0.000000 0.913773
v -9.441865 0.000000 -3.551386
v -8.946992 0.000000 -6.571198
v 1.439672 8.236853 -6.011905
v -1.588355 8.413747 -6.005567
v -1.743407 13.054409 -3.022353
v -0.700484 6.680835 7.343697
v -1.769061 10.194659 4.645164
v 6.818834 7.404660 -3.497932
v 6.654849 6.252413 -6.145867
v 1.103358 10.653580 4.581852
v -3.929122 6.517570 -5.806880
v 4.429408 7.908597 -6.177137
v -1.937307 16.663763 0.830503
v 6.787446 5.716659 -0.433910
v -4.846970 8.553989 3.386703
v -6.583127 6.303194 2.628602
v 3.591214 6.822307 4.738626
v 1.306961 6.175870 7.471768
v 3.231333 5.185846 7.355796
v 1.374430 15.637019 -3.557258
v 1.292303 15.076764 0.737724
v 4.407895 12.258859 -3.528689
v 4.523873 8.924763 0.713153
v -6.819653 7.032482 0.527961
v -6.642756 6.196336 -1.773736
v -4.710134 8.984403 -2.987441
v -5.030282 13.604614 0.416308
v -8.026843 3.376481 0.650668
v -7.568861 3.278286 -2.237912
v -1.187862 3.472815 8.412791
v -3.187907 4.436878 6.599205
v 4.136990 2.590158 8.697585
v 1.421363 3.073067 8.729933
v -6.281688 3.838052 -4.525267
v -4.664993 3.247388 -6.964560
v 7.642663 3.695798 -3.547428
v 7.527599 2.933366 0.134476
v 7.560884 3.119210 -7.130809
v -5.614497 4.124515 5.066885
v -7.402012 3.448446 3.375072
v -1.760999 4.199877 -7.060655
v 5.811601 3.817467 2.328105
v 4.714736 3.947302 -7.146437
v 1.486442 4.111430 -7.063821
v 4.822191 3.304502 5.545319
vn -0.5648 0.4760 -0.6741
vn 0.6945 0.4896 -0.5273
vn -0.0055 0.5725 0.8199
vn 0.5807 0.5366 0.6122
vn -0.2335 0.3967 -0.8878
vn 0.2197 0.3900 -0.8942
vn 0.1262 0.5704 0.8116
vn -0.1788 0.9195 -0.3501
vn 0.7608 0.4422 0.4751
vn 0.8111 0.5333 0.2401
vn 0.8431 0.4476 0.2979
vn -0.8517 0.3093 0.4231
vn -0.8823 0.2994 -0.3632
vn -0.5218 0.4211 0.7419
vn -0.5737 0.5213 -0.6318
vn -0.9346 0.3121 -0.1705
vn -0.5560 0.3693 0.7446
vn 0.1660 0.4338 0.8856
vn -0.7375 0.3808 -0.5577
vn 0.9644 0.2410 0.1085
vn 0.9596 0.2592 -0.1098
vn -0.5223 0.3838 0.7616
vn -0.7145 0.3562 0.6021
vn -0.2156 0.3008 -0.9290
vn 0.7856 0.3442 0.5142
vn 0.1487 0.2858 -0.9467
vn -0.8325 0.3620 -0.4195
vn -0.0195 0.2417 -0.9702
vn 0.8649 0.3528 0.3569
vn 0.0089 0.2448 -0.9695
vn 0.8528 0.4112 0.3220
vn -0.9257 0.3159 0.2083
vn -0.0224 0.3471 0.9376
vn -0.0491 0.3739 0.9262
vn -0.8907 0.4368 0.1262
vn 0.9042 0.3586 0.2320
vn 0.0028 0.2457 -0.9693
vn 0.8538 0.3740 0.3622
vn -0.0060 0.2430 -0.9700
vn -0.7807 0.5921 -0.1997
vn 0.0381 0.2723 -0.9615
vn 0.8150 0.3886 0.4298
vn -0.0578 0.2900 -0.9553
vn -0.5590 0.4542 0.6938
vn -0.5198 0.3469 0.7807
vn 0.9679 0.2499 -0.0275
vn 0.9664 0.2534 0.0440
vn -0.4741 0.5410 -0.6947
vn 0.0365 0.4077 0.9124
vn -0.5623 0.3617 0.7436
vn -0.8909 0.4499 -0.0615
usemtl None
s off
f 42//1 21//1 20//1 27//1
f 38//2 24//2 25//2 28//2
f 22//3 34//3 26//3 23//3
f 34//4 35//4 33//4 26//4
f 21//5 36//5 19//5 20//5
f 36//6 38//6 28//6 19//6
f 23//7 26//7 37//7 29//7
f 29//8 37//8 36//8 21//8
f 26//9 33//9 39//9 37//9
f 37//10 39//10 38//10 36//10
f 39//11 30//11 24//11 38//11
f 32//12 31//12 43//12 40//12
f 40//13 43//13 42//13 41//13
f 31//14 23//14 29//14 43//14
f 43//15 29//15 21//15 42//15
f 45//16 44//16 40//16 41//16
f 47//17 46//17 22//17 23//17
f 49//18 48//18 35//18 34//18
f 51//19 50//19 42//19 27//19
f 53//20 52//20 24//20 30//20
f 52//21 54//21 25//21 24//21
f 55//22 47//22 23//22 31//22
f 56//23 55//23 31//23 32//23
f 57//24 51//24 27//24 20//24
f 58//25 53//25 30//25 39//25
f 54//26 59//26 28//26 25//26
f 50//27 45//27 41//27 42//27
f 59//28 60//28 19//28 28//28
f 61//29 58//29 39//29 33//29
f 60//30 57//30 20//30 19//30
f 48//31 61//31 33//31 35//31
f 44//32 56//32 32//32 40//32
f 46//33 49//33 34//33 22//33
f 7//34 13//34 49//34 46//34
f 16//35 11//35 56//35 44//35
f 14//36 12//36 61//36 48//36
f 6//37 2//37 57//37 60//37
f 12//38 15//38 58//38 61//38
f 5//39 6//39 60//39 59//39
f 18//40 17//40 45//40 50//40
f 1//41 5//41 59//41 54//41
f 15//42 8//42 53//42 58//42
f 2//43 4//43 51//43 57//43
f 11//44 10//44 55//44 56//44
f 10//45 3//45 47//45 55//45
f 9//46 1//46 54//46 52//46
f 8//47 9//47 52//47 53//47
f 4//48 18//48 50//48 51//48
f 13//49 14//49 48//49 49//49
f 3//50 7//50 46//50 47//50
f 17//51 16//51 44//51 45//51
