# Blender v2.79 (sub 7) OBJ File: 'Landscape.blend'
# www.blender.org
mtllib Mountain_1.mtl
o Mountain_2_Plane.010
v -15.401147 0.000000 11.606550
v -11.789096 0.000000 -16.808380
v -2.180512 0.000000 -19.819883
v 6.851795 0.000000 -17.397234
v 19.991880 0.000000 9.356586
v 18.306610 0.000000 -2.653391
v -0.798943 0.000000 17.524757
v -3.435585 0.000000 16.236519
v 9.009232 0.000000 20.098810
v 11.265409 0.000000 -13.096282
v 9.739075 0.000000 -16.479324
v 19.965120 0.000000 14.049069
v 20.588375 0.000000 4.925255
v 19.430851 0.000000 0.749008
v -15.997544 0.000000 8.497479
v -24.674086 0.000000 -5.314740
v -14.647846 0.000000 -16.782188
v -13.610066 0.000000 13.742078
v -5.474858 0.000000 -19.944098
v -8.684177 0.000000 -17.850437
v 3.912534 0.000000 -19.444170
v 1.024751 0.000000 -20.188963
v 16.680048 0.000000 -5.258113
v 12.665006 0.000000 -9.473818
v 14.746673 0.000000 -7.462845
v 12.542920 0.000000 19.946640
v 16.325033 0.000000 18.754311
v 16.497730 0.000000 14.254461
v 2.165235 0.000000 18.971220
v 4.714767 0.000000 23.330727
v -11.064795 0.000000 15.434333
v -5.815933 0.000000 14.382762
v -20.195757 0.000000 -9.529098
v -18.474264 0.000000 -12.430829
v -16.555189 0.000000 -14.653797
v -24.375668 0.000000 4.168783
v -26.689939 0.000000 -0.329527
v -19.860994 0.000000 6.811989
v -8.982472 30.242239 -1.862740
v -8.510615 32.346138 -6.904683
v -11.061409 20.740088 -10.419321
v -9.894375 14.463517 -12.446247
v -1.537422 17.558174 9.369487
v -2.271714 28.757328 2.715292
v -1.473571 37.361969 -2.446951
v -1.412788 36.494774 -5.785746
v -0.169338 22.667896 -10.345304
v -0.587877 14.051122 -12.673680
v 8.069792 19.804659 10.467837
v 5.452063 21.483093 4.655430
v 5.426948 23.459652 -1.109498
v 6.851671 22.067863 -4.079775
v 6.182910 12.052693 -11.269795
v 5.296076 9.576929 -14.091363
v 14.778493 9.463313 10.391942
v 16.200956 12.895770 7.488331
v 15.778663 14.336916 0.826550
v 15.060628 11.860088 -1.333107
v -8.135767 18.519764 5.911732
v -11.114943 15.448485 5.499502
v -5.939832 33.121117 -8.334844
v -8.081965 15.398602 -13.391356
v 0.870535 28.540379 2.988695
v 1.240342 31.026371 -5.781809
v 2.208960 12.853819 -13.423096
v 10.622914 21.206238 7.436516
v 10.131900 20.148039 -3.805074
v -9.446845 22.341412 1.893372
v -10.484487 28.733227 -6.932218
v 0.469019 13.390846 13.448575
v -1.464234 34.442619 -0.247318
v -1.804013 30.128582 -8.731727
v 8.015959 13.080955 16.343382
v 5.336395 22.616659 0.976481
v 7.775027 15.829792 -7.914491
v 17.691336 14.127718 3.942092
v -13.260018 12.276754 5.044937
v -12.665390 25.478107 -4.939063
v -16.283985 14.432378 -4.473592
v -11.823856 12.702028 -12.038762
v -5.513075 25.719137 2.123470
v -3.243294 35.533409 -7.335646
v -3.524980 14.842014 -13.047812
v 3.171588 24.910603 2.853004
v 3.754713 25.988003 -4.627829
v 3.894870 11.239738 -13.371916
v 12.699948 17.923969 8.067616
v 13.951139 14.493218 -2.969818
v 10.796415 13.771879 -6.445154
v 12.852999 11.508842 -5.293550
v 8.782340 22.914307 -0.417441
v 8.935325 22.814770 2.948573
v 11.656217 24.186674 0.066369
v 12.120333 23.709160 4.006214
v 10.154980 16.376865 11.356757
v 10.417418 11.122794 13.836449
v 12.835849 11.705707 11.475950
v 12.582770 9.309664 13.627660
v 2.362954 20.052078 -9.592842
v 1.369198 25.895901 -8.131111
v 4.253340 16.518225 -10.184723
v 4.459423 21.772385 -7.006071
v 1.337968 33.956268 -2.766639
v 1.371590 32.663994 -0.915893
v 3.476728 28.476084 -2.777279
v 3.301767 27.722157 -0.923813
v 1.263515 20.828230 7.098117
v 2.633993 14.403024 13.781497
v 4.068887 20.430576 7.915098
v 5.258987 14.304789 15.555206
v -7.672585 23.643915 -10.945996
v -7.711973 31.808693 -8.537075
v -3.660916 24.344444 -10.649810
v -4.534470 32.289299 -8.558964
v -4.833415 33.279911 -5.094171
v -7.662185 28.956985 0.995681
v -3.510609 36.118828 -3.573722
v -3.445050 32.439888 -1.577870
v -6.697303 14.665074 8.980998
v -4.596558 16.728167 8.935240
v -14.794409 13.793065 -6.906286
v -14.795588 12.086498 -9.366195
v -12.017071 15.484497 -9.551392
v -13.304633 22.340618 -7.640957
v -16.235868 12.966858 -1.284239
v -16.113436 11.101600 1.135841
v -12.746363 20.529682 -1.362825
v -14.125012 14.696342 2.614718
v -14.504056 6.665534 6.796117
v -18.996220 6.741979 4.786934
v -2.371694 8.571466 13.768566
v -5.046751 8.464709 12.418032
v 15.817588 5.403736 13.415894
v 14.360039 5.096855 15.530813
v 17.000246 6.471790 1.120817
v 19.136051 6.028139 4.487848
v -22.419701 6.583260 -5.165492
v -20.708595 6.787689 -9.021401
v 11.778350 5.671319 16.098379
v 8.682202 6.444008 17.950405
v 6.281271 5.386845 -15.484094
v 9.271423 6.170395 -12.930163
v -13.472011 7.715234 9.867457
v -22.260754 5.866247 2.727629
v 3.497436 5.817554 -16.509699
v -17.853210 6.038838 -11.901480
v 19.370327 5.704389 8.408669
v 17.683495 5.082549 11.738373
v -0.007234 7.300092 15.175685
v 0.907675 6.601621 -16.977686
v -16.028296 8.702579 -12.786490
v -14.747900 7.832584 -15.341504
v 16.661356 6.252724 -1.786859
v -11.205805 8.712446 11.559451
v -11.796774 8.602960 -14.506225
v 15.288236 6.744580 -4.114451
v -8.558107 8.459310 -15.369882
v 2.654676 7.194036 15.861297
v 13.716272 6.336001 -6.283026
v -2.288845 7.352625 -16.967585
v 5.122761 6.995831 17.840183
v -5.440958 7.979836 -17.169628
v 10.093978 7.233181 -10.019197
v 11.664628 6.885798 -8.059767
v -22.979689 6.707343 -1.672793
v -8.721664 7.996215 12.842068
vn -0.8385 0.4468 0.3119
vn -0.7561 0.1974 -0.6240
vn -0.4199 0.4796 0.7705
vn -0.3755 0.9045 -0.2024
vn 0.1942 0.2448 -0.9499
vn 0.2836 0.8708 0.4015
vn 0.8761 0.4764 -0.0740
vn 0.4940 0.4816 -0.7239
vn 0.6639 0.3453 0.6633
vn 0.8680 0.2858 -0.4061
vn 0.4891 0.4462 -0.7494
vn 0.6656 0.3254 -0.6717
vn 0.3701 0.8432 -0.3900
vn 0.4748 0.5090 -0.7180
vn -0.1807 0.9197 0.3487
vn -0.0161 0.9852 0.1705
vn 0.1478 0.7671 0.6242
vn -0.3582 0.9279 0.1035
vn 0.7468 0.4419 0.4970
vn 0.8696 0.4248 -0.2516
vn 0.1623 0.8365 0.5235
vn 0.6072 0.4265 0.6704
vn 0.7048 0.4141 0.5760
vn 0.5787 0.4229 0.6973
vn 0.2466 0.3439 -0.9060
vn 0.4804 0.4149 -0.7727
vn 0.6088 0.3204 -0.7258
vn 0.5353 0.2892 -0.7936
vn 0.7732 0.3398 -0.5354
vn 0.6048 0.3434 -0.7185
vn 0.6664 0.4549 -0.5907
vn 0.5488 0.4155 -0.7254
vn 0.8053 0.5068 -0.3076
vn 0.8692 0.3461 -0.3532
vn 0.2328 0.5367 0.8110
vn 0.6078 0.5536 0.5692
vn 0.8150 0.3952 0.4238
vn 0.9067 0.3536 0.2299
vn 0.8020 0.5273 0.2806
vn 0.8746 0.4260 0.2316
vn 0.0369 0.4960 0.8676
vn 0.3640 0.5842 0.7254
vn -0.2732 0.6414 0.7170
vn -0.2519 0.7051 0.6629
vn -0.1456 0.7109 0.6881
vn -0.4275 0.2456 -0.8700
vn 0.0675 0.2617 -0.9628
vn -0.6746 0.5367 -0.5068
vn -0.5590 0.3006 -0.7728
vn 0.0176 0.2877 -0.9575
vn -0.0074 0.2686 -0.9632
vn 0.3501 0.3206 -0.8802
vn 0.1789 0.2575 -0.9496
vn -0.3481 0.9063 0.2395
vn -0.8011 0.5976 0.0325
vn -0.7107 0.3792 0.5925
vn -0.5927 0.5960 0.5417
vn 0.1688 0.4223 0.8906
vn -0.6511 0.6389 0.4097
vn -0.6653 0.4671 0.5825
vn -0.6873 0.3841 0.6164
vn -0.3909 0.5151 0.7628
vn -0.9228 0.2213 -0.3156
vn -0.7390 0.2149 -0.6385
vn -0.8681 0.4337 -0.2415
vn -0.6951 0.2160 -0.6857
vn -0.8807 0.3459 0.3236
vn -0.8710 0.3902 0.2985
vn -0.6760 0.4410 0.5904
vn -0.7456 0.4001 0.5329
vn -0.4493 0.4292 0.7835
vn -0.3315 0.4124 0.8486
vn 0.6443 0.5024 0.5766
vn 0.8478 0.1143 -0.5179
vn -0.6784 0.6237 -0.3884
vn 0.6814 0.3243 0.6562
vn 0.5788 0.4418 -0.6854
vn -0.8659 0.3818 0.3231
vn -0.7150 0.6617 0.2255
vn 0.2750 0.4236 -0.8631
vn -0.5646 0.5927 -0.5743
vn 0.6407 0.4571 0.6169
vn -0.5228 0.3595 0.7729
vn 0.3423 0.4293 -0.8358
vn -0.4926 0.6301 -0.6003
vn 0.3661 0.4660 0.8055
vn 0.9328 0.1990 -0.3004
vn -0.6338 0.5220 0.5707
vn -0.1885 0.5056 -0.8419
vn 0.7017 0.5323 0.4735
vn 0.8966 0.2416 -0.3710
vn -0.3638 0.3411 -0.8668
vn -0.7902 0.5536 -0.2630
vn -0.2476 0.2744 0.9292
vn 0.7503 0.2301 -0.6198
vn 0.0562 0.5079 -0.8596
vn -0.5665 0.2414 0.7879
vn 0.1927 0.4798 -0.8560
vn 0.6667 0.3010 -0.6818
vn -0.7393 0.6689 0.0777
vn -0.1145 0.4182 -0.9011
vn -0.2571 0.5415 0.8005
vn 0.6690 0.2474 -0.7009
vn -0.6028 0.7134 0.3574
vn -0.0620 0.2661 0.9619
vn 0.6964 0.4127 -0.5871
vn -0.1276 0.4547 0.8815
vn 0.9282 0.3011 0.2189
vn 0.9825 0.1795 0.0496
vn 0.1463 0.2382 0.9602
vn 0.8782 0.2939 -0.3774
vn 0.3557 0.4602 0.8135
vn -0.8284 0.4559 0.3255
vn 0.6730 0.2406 -0.6995
vn -0.4366 0.3597 0.8246
vn -0.4898 0.2698 -0.8291
vn -0.8862 0.3730 -0.2747
vn 0.8566 0.2714 -0.4389
vn 0.0808 0.3437 -0.9356
vn -0.7141 0.3953 0.5777
vn -0.0076 0.3984 -0.9172
vn 0.7445 0.2480 -0.6199
vn -0.3249 0.3584 0.8752
vn -0.6975 0.1676 -0.6967
vn -0.2723 0.2615 -0.9260
vn 0.8345 0.2693 -0.4807
vn 0.3301 0.3558 0.8743
vn 0.1056 0.2215 -0.9694
vn -0.6888 0.3352 0.6428
vn 0.9214 0.3170 -0.2247
vn 0.2658 0.5754 0.7735
vn -0.8071 0.1358 -0.5746
vn 0.2536 0.4377 -0.8626
vn -0.3892 0.3089 0.8678
vn 0.9228 0.3153 0.2215
vn -0.7792 0.0570 -0.6242
vn 0.4587 0.3865 -0.8001
vn -0.5144 0.3382 0.7880
vn -0.9409 0.2722 0.2017
vn 0.4200 0.4184 -0.8054
vn 0.3063 0.4443 0.8419
vn -0.7882 0.1322 -0.6011
vn 0.8873 0.2737 -0.3713
vn 0.9151 0.3236 0.2405
vn -0.5199 0.2671 0.8114
vn -0.3822 0.3093 0.8708
usemtl None
s off
f 127//1 39//1 40//1 78//1
f 123//2 41//2 42//2 80//2
f 120//3 43//3 44//3 81//3
f 117//4 45//4 46//4 82//4
f 113//5 47//5 48//5 83//5
f 109//6 49//6 50//6 84//6
f 105//7 51//7 52//7 85//7
f 101//8 53//8 54//8 86//8
f 97//9 55//9 56//9 87//9
f 93//10 57//10 58//10 88//10
f 52//11 67//11 89//11 75//11
f 67//12 88//12 90//12 89//12
f 51//13 91//13 67//13 52//13
f 91//14 93//14 88//14 67//14
f 50//15 66//15 92//15 74//15
f 74//16 92//16 91//16 51//16
f 66//17 87//17 94//17 92//17
f 92//18 94//18 93//18 91//18
f 87//19 56//19 76//19 94//19
f 94//20 76//20 57//20 93//20
f 49//21 95//21 66//21 50//21
f 95//22 97//22 87//22 66//22
f 73//23 96//23 95//23 49//23
f 96//24 98//24 97//24 95//24
f 47//25 99//25 65//25 48//25
f 99//26 101//26 86//26 65//26
f 46//27 64//27 100//27 72//27
f 72//28 100//28 99//28 47//28
f 64//29 85//29 102//29 100//29
f 100//30 102//30 101//30 99//30
f 85//31 52//31 75//31 102//31
f 102//32 75//32 53//32 101//32
f 45//33 103//33 64//33 46//33
f 103//34 105//34 85//34 64//34
f 44//35 63//35 104//35 71//35
f 71//36 104//36 103//36 45//36
f 63//37 84//37 106//37 104//37
f 104//38 106//38 105//38 103//38
f 84//39 50//39 74//39 106//39
f 106//40 74//40 51//40 105//40
f 43//41 107//41 63//41 44//41
f 107//42 109//42 84//42 63//42
f 70//43 108//43 107//43 43//43
f 108//44 110//44 109//44 107//44
f 110//45 73//45 49//45 109//45
f 41//46 111//46 62//46 42//46
f 111//47 113//47 83//47 62//47
f 40//48 61//48 112//48 69//48
f 69//49 112//49 111//49 41//49
f 61//50 82//50 114//50 112//50
f 112//51 114//51 113//51 111//51
f 82//52 46//52 72//52 114//52
f 114//53 72//53 47//53 113//53
f 39//54 115//54 61//54 40//54
f 115//55 117//55 82//55 61//55
f 60//56 59//56 116//56 68//56
f 68//57 116//57 115//57 39//57
f 59//58 81//58 118//58 116//58
f 116//59 118//59 117//59 115//59
f 81//60 44//60 71//60 118//60
f 118//61 71//61 45//61 117//61
f 119//62 120//62 81//62 59//62
f 79//63 78//63 124//63 121//63
f 121//64 124//64 123//64 122//64
f 78//65 40//65 69//65 124//65
f 124//66 69//66 41//66 123//66
f 125//67 127//67 78//67 79//67
f 126//68 128//68 127//68 125//68
f 77//69 60//69 68//69 128//69
f 128//70 68//70 39//70 127//70
f 130//71 129//71 77//71 128//71
f 132//72 131//72 43//72 120//72
f 134//73 133//73 97//73 98//73
f 136//74 135//74 57//74 76//74
f 138//75 137//75 79//75 121//75
f 140//76 139//76 96//76 73//76
f 142//77 141//77 54//77 53//77
f 129//78 143//78 60//78 77//78
f 144//79 130//79 128//79 126//79
f 141//80 145//80 86//80 54//80
f 146//81 138//81 121//81 122//81
f 148//82 147//82 56//82 55//82
f 131//83 149//83 70//83 43//83
f 145//84 150//84 65//84 86//84
f 152//85 151//85 123//85 80//85
f 139//86 134//86 98//86 96//86
f 135//87 153//87 58//87 57//87
f 143//88 154//88 59//88 60//88
f 155//89 152//89 80//89 42//89
f 133//90 148//90 55//90 97//90
f 153//91 156//91 88//91 58//91
f 157//92 155//92 42//92 62//92
f 151//93 146//93 122//93 123//93
f 149//94 158//94 108//94 70//94
f 156//95 159//95 90//95 88//95
f 150//96 160//96 48//96 65//96
f 158//97 161//97 110//97 108//97
f 160//98 162//98 83//98 48//98
f 164//99 163//99 75//99 89//99
f 137//100 165//100 125//100 79//100
f 162//101 157//101 62//101 83//101
f 154//102 166//102 119//102 59//102
f 159//103 164//103 89//103 90//103
f 165//104 144//104 126//104 125//104
f 161//105 140//105 73//105 110//105
f 163//106 142//106 53//106 75//106
f 166//107 132//107 120//107 119//107
f 147//108 136//108 76//108 56//108
f 5//109 13//109 136//109 147//109
f 31//110 32//110 132//110 166//110
f 10//111 11//111 142//111 163//111
f 30//112 9//112 140//112 161//112
f 37//113 36//113 144//113 165//113
f 25//114 24//114 164//114 159//114
f 18//115 31//115 166//115 154//115
f 19//116 20//116 157//116 162//116
f 16//117 37//117 165//117 137//117
f 24//118 10//118 163//118 164//118
f 3//119 19//119 162//119 160//119
f 29//120 30//120 161//120 158//120
f 22//121 3//121 160//121 150//121
f 23//122 25//122 159//122 156//122
f 7//123 29//123 158//123 149//123
f 35//124 34//124 146//124 151//124
f 20//125 2//125 155//125 157//125
f 6//126 23//126 156//126 153//126
f 28//127 12//127 148//127 133//127
f 2//128 17//128 152//128 155//128
f 1//129 18//129 154//129 143//129
f 14//130 6//130 153//130 135//130
f 26//131 27//131 134//131 139//131
f 17//132 35//132 151//132 152//132
f 21//133 22//133 150//133 145//133
f 8//134 7//134 149//134 131//134
f 12//135 5//135 147//135 148//135
f 34//136 33//136 138//136 146//136
f 4//137 21//137 145//137 141//137
f 36//138 38//138 130//138 144//138
f 15//139 1//139 143//139 129//139
f 11//140 4//140 141//140 142//140
f 9//141 26//141 139//141 140//141
f 33//142 16//142 137//142 138//142
f 13//143 14//143 135//143 136//143
f 27//144 28//144 133//144 134//144
f 32//145 8//145 131//145 132//145
f 38//146 15//146 129//146 130//146
